<?xml version="1.0" encoding="utf-8"?>
<!-- Generator: Adobe Illustrator 24.0.0, SVG Export Plug-In . SVG Version: 6.00 Build 0)  -->
<svg version="1.1" id="Layer_1" xmlns="http://www.w3.org/2000/svg" xmlns:xlink="http://www.w3.org/1999/xlink" x="0px" y="0px"
	 viewBox="0 0 50 50" style="enable-background:new 0 0 50 50;" xml:space="preserve">
<style type="text/css">
	.st0{fill:#00ACED;}
	.st1{fill:#FFFFFF;}
	.st2{fill:none;stroke:#000000;stroke-width:0.3;}
</style>
<g>
	<g>
		<g>
			<circle class="st0" cx="25" cy="25" r="25"/>
			<path class="st1" d="M10,31.9c0,0,2.1,0.5,4.2,0.5c2,0,3.5-0.9,4.1-1.2c1.4-0.8,2.4-2,4.4-4.4c1.5-1.8,2.2-2.7,2.6-3.4
				c0.4-0.8,0.6-1.4,1.8-6.5c0.7-3.1,0.9-4.2,2-5.3c0.9-0.9,1.8-1.2,2.2-1.4c0.5-0.2,1.8-0.6,3.2,0c0.4,0.2,1.2,0.5,1.6,1.3
				c0.3,0.5,0.2,0.6,0.5,1c0.5,0.6,1.3,0.8,1.6,0.9c0.8,0.2,1.4,0,1.4,0.2c0.1,0.2-0.5,0.7-1.2,1c-1.1,0.5-1.7,0-2.6,0.5
				c-0.4,0.3-0.7,0.6-0.8,0.9c-0.8,1.2-0.6,2.6-0.6,3.1c0.1,1.5,0.5,7-0.6,10.1c-1.2,3.7-5,5.6-7,6.6c-3.8,1.8-7.1,1.7-8.1,1.6
				C18,37.2,14,36.9,10.5,34c-0.8-0.7-2.3-2-2.1-2.3C8.6,31.5,9.1,31.7,10,31.9z"/>
			<circle class="st0" cx="32.8" cy="12.8" r="0.9"/>
		</g>
	</g>
	<line class="st2" x1="0" y1="-54" x2="0" y2="-18"/>
	<line class="st2" x1="-54" y1="0" x2="-18" y2="0"/>
	<line class="st2" x1="-54" y1="50" x2="-18" y2="50"/>
	<line class="st2" x1="0" y1="104" x2="0" y2="68"/>
	<line class="st2" x1="50" y1="-54" x2="50" y2="-18"/>
	<line class="st2" x1="104" y1="0" x2="68" y2="0"/>
	<line class="st2" x1="104" y1="50" x2="68" y2="50"/>
	<line class="st2" x1="50" y1="104" x2="50" y2="68"/>
</g>
</svg>
